{"asset":{"version":"2.0","generator":"babylon.js glTF exporter for 3dsmax 2022 v20210802.1"},"scene":0,"scenes":[{"nodes":[0,1,2,3,4,5,6]}],"nodes":[{"mesh":0,"translation":[-1.15200655E-12,135.0,7.62939453E-06],"rotation":[0.0,-0.7071068,0.0,0.7071067],"scale":[100.0,100.0,100.0],"name":"mesa_cadeiras"},{"mesh":1,"translation":[1.52587891E-05,135.0,7.629396E-06],"rotation":[0.0,-0.7071068,0.0,0.7071067],"scale":[100.0,100.0,100.0],"name":"sofa"},{"mesh":2,"translation":[1.52587891E-05,135.0,7.629396E-06],"scale":[100.0,100.0,100.0],"name":"puff_a"},{"mesh":3,"translation":[1.15200655E-12,135.0,-7.62939453E-06],"scale":[100.0,100.0,100.0],"name":"teste"},{"mesh":4,"translation":[-1.52587845E-05,135.0,-3.81469727E-05],"rotation":[0.0,0.08715573,0.0,0.9961947],"scale":[3359.998,3359.999,3359.998],"name":"puff_b"},{"mesh":5,"translation":[-19.6298771,69.2443848,-256.974579],"scale":[100.0,100.0,100.0],"name":"planoDeVideo"},{"translation":[-1.0,1.5,0.0],"name":"VRayCam001.Target"}],"meshes":[{"primitives":[{"attributes":{"POSITION":1,"NORMAL":2,"TEXCOORD_0":3,"TEXCOORD_1":4},"indices":0}],"name":"mesa_cadeiras"},{"primitives":[{"attributes":{"POSITION":6,"NORMAL":7},"indices":5}],"name":"sofa"},{"primitives":[{"attributes":{"POSITION":9,"NORMAL":10},"indices":8}],"name":"puff_a"},{"primitives":[{"attributes":{"POSITION":12,"NORMAL":13,"TEXCOORD_0":14},"indices":11}],"name":"teste"},{"primitives":[{"attributes":{"POSITION":16,"NORMAL":17},"indices":15}],"name":"puff_b"},{"primitives":[{"attributes":{"POSITION":19,"NORMAL":20,"TEXCOORD_0":21},"indices":18}],"name":"planoDeVideo"}],"accessors":[{"bufferView":0,"componentType":5123,"count":72768,"type":"SCALAR","name":"accessorIndices"},{"bufferView":1,"componentType":5126,"count":15716,"max":[2.49974966,-0.6586094,1.6278888],"min":[0.2738382,-1.5204556,0.3245284],"type":"VEC3","name":"accessorPositions"},{"bufferView":1,"byteOffset":188592,"componentType":5126,"count":15716,"type":"VEC3","name":"accessorNormals"},{"bufferView":2,"componentType":5126,"count":15716,"type":"VEC2","name":"accessorUVs"},{"bufferView":2,"byteOffset":125728,"componentType":5126,"count":15716,"type":"VEC2","name":"accessorUV2s"},{"bufferView":0,"byteOffset":145536,"componentType":5123,"count":4458,"type":"SCALAR","name":"accessorIndices"},{"bufferView":1,"byteOffset":377184,"componentType":5126,"count":988,"max":[1.634932,-0.777721643,-2.06659913],"min":[-0.7366292,-1.42580819,-3.14923525],"type":"VEC3","name":"accessorPositions"},{"bufferView":1,"byteOffset":389040,"componentType":5126,"count":988,"type":"VEC3","name":"accessorNormals"},{"bufferView":0,"byteOffset":154452,"componentType":5123,"count":1395,"type":"SCALAR","name":"accessorIndices"},{"bufferView":1,"byteOffset":400896,"componentType":5126,"count":451,"max":[0.9312355,-1.11184216,1.8692317],"min":[0.3159364,-1.53110719,1.25953364],"type":"VEC3","name":"accessorPositions"},{"bufferView":1,"byteOffset":406308,"componentType":5126,"count":451,"type":"VEC3","name":"accessorNormals"},{"bufferView":0,"byteOffset":157244,"componentType":5123,"count":192,"type":"SCALAR","name":"accessorIndices"},{"bufferView":1,"byteOffset":411720,"componentType":5126,"count":124,"max":[0.495370179,-0.764682531,-2.09820271],"min":[-0.7046298,-1.38,-2.64490557],"type":"VEC3","name":"accessorPositions"},{"bufferView":1,"byteOffset":413208,"componentType":5126,"count":124,"type":"VEC3","name":"accessorNormals"},{"bufferView":2,"byteOffset":251456,"componentType":5126,"count":124,"type":"VEC2","name":"accessorUVs"},{"bufferView":0,"byteOffset":157628,"componentType":5123,"count":603,"type":"SCALAR","name":"accessorIndices"},{"bufferView":1,"byteOffset":414696,"componentType":5126,"count":112,"max":[0.0511049181,-0.03344569,0.07831013],"min":[0.0308132265,-0.0434259,0.0583782],"type":"VEC3","name":"accessorPositions"},{"bufferView":1,"byteOffset":416040,"componentType":5126,"count":112,"type":"VEC3","name":"accessorNormals"},{"bufferView":0,"byteOffset":158836,"componentType":5123,"count":6,"type":"SCALAR","name":"accessorIndices"},{"bufferView":1,"byteOffset":417384,"componentType":5126,"count":4,"max":[0.1729629,0.266167283,0.07669625],"min":[-0.1729629,0.0,0.07669625],"type":"VEC3","name":"accessorPositions"},{"bufferView":1,"byteOffset":417432,"componentType":5126,"count":4,"type":"VEC3","name":"accessorNormals"},{"bufferView":2,"byteOffset":252448,"componentType":5126,"count":4,"type":"VEC2","name":"accessorUVs"}],"bufferViews":[{"buffer":0,"byteLength":158848,"name":"bufferViewScalar"},{"buffer":0,"byteOffset":158848,"byteLength":417480,"byteStride":12,"name":"bufferViewFloatVec3"},{"buffer":0,"byteOffset":576328,"byteLength":252480,"byteStride":8,"name":"bufferViewFloatVec2"}],"buffers":[{"uri":"sceneMesh.bin","byteLength":828808}]}